<?xml version="1.0" encoding="UTF-8"?>
<svg width="120px" height="120px" viewBox="0 0 120 120" version="1.1" xmlns="http://www.w3.org/2000/svg" xmlns:xlink="http://www.w3.org/1999/xlink">
    <!-- Generator: Sketch 52.5 (67469) - http://www.bohemiancoding.com/sketch -->
    <title>noun_design_2084639</title>
    <desc>Created with Sketch.</desc>
    <g id="Page-3" stroke="none" stroke-width="1" fill="none" fill-rule="evenodd">
        <g id="o" transform="translate(-72.000000, -540.000000)" fill="#73FBD3">
            <g id="noun_design_2084639" transform="translate(72.000000, 540.000000)">
                <rect id="Rectangle" x="52.5619835" y="10.9090909" width="17.8512397" height="3.96694215"></rect>
                <path d="M117.931034,10.4168725 L96.5586207,10.4168725 L96.5586207,14.5520849 L115.862069,14.5520849 L115.862069,74.5126641 L95.1724138,74.5126641 L95.1724138,64.1746332 L97.2413793,64.1746332 C98.3840374,64.1746332 99.3103448,63.2489344 99.3103448,62.107027 L99.3103448,53.8366023 C99.3103448,52.6946949 98.3840374,51.7689961 97.2413793,51.7689961 L96.6206897,51.7689961 L105.248276,36.2412737 C105.617861,35.6015541 105.617861,34.8133871 105.248276,34.1736675 L84.5586207,1.09196867 C84.3026322,0.605553507 83.8633933,0.2410016 83.337931,0.0788416377 C82.4536478,-0.172157868 81.5096908,0.190016092 81.0206897,0.967912295 L60.3310345,34.0496112 C59.9614494,34.6893307 59.9614494,35.4774978 60.3310345,36.1172173 L68.8965517,51.7689961 L68.2758621,51.7689961 C67.133204,51.7689961 66.2068966,52.6946949 66.2068966,53.8366023 L66.2068966,62.107027 C66.2068966,63.2489344 67.133204,64.1746332 68.2758621,64.1746332 L70.3448276,64.1746332 L70.3448276,74.5126641 L49.6551724,74.5126641 L49.6551724,64.1746332 L51.7241379,64.1746332 C52.866796,64.1746332 53.7931034,63.2489344 53.7931034,62.107027 L53.7931034,53.8366023 C53.7931034,52.6946949 52.866796,51.7689961 51.7241379,51.7689961 L50.2344828,51.7689961 C54.077594,46.3390018 56.0524777,39.8087532 55.862069,33.1605405 C55.862069,20.1139455 39.4758621,1.54684202 38.7931034,0.781827738 C38.242486,0.153370276 37.3675565,-0.082258625 36.5755022,0.18460137 C35.783448,0.451461365 35.2298753,1.16838312 35.1724138,2.00171538 C34.774372,6.03994253 33.4809651,9.93880314 31.3862069,13.4149015 C29.8706822,15.3720949 28.1273794,17.1420157 26.1931034,18.6872972 C21.6827586,22.8225096 16.5517241,27.3712432 16.5517241,35.2281467 C16.5517241,43.8293884 19.2,49.1017841 21.6413793,52.1411652 C21.061489,52.5127387 20.7046844,53.1483637 20.6896552,53.8366023 L20.6896552,62.107027 C20.6896552,63.2489344 21.6159626,64.1746332 22.7586207,64.1746332 L24.8275862,64.1746332 L24.8275862,74.5126641 L4.13793103,74.5126641 L4.13793103,14.5520849 L26.8965517,14.5520849 L26.8965517,10.4168725 L2.06896552,10.4168725 C0.926307414,10.4168725 0,11.3425713 0,12.4844787 L0,99.3239382 C0,100.465846 0.926307414,101.391544 2.06896552,101.391544 L47.5862069,101.391544 L47.5862069,115.864788 L32.0689655,115.864788 L32.0689655,120 L87.9310345,120 L87.9310345,115.864788 L72.4137931,115.864788 L72.4137931,101.391544 L117.931034,101.391544 C119.073693,101.391544 120,100.465846 120,99.3239382 L120,12.4844787 C120,11.3425713 119.073693,10.4168725 117.931034,10.4168725 Z M95.1724138,60.0394208 L70.3448276,60.0394208 L70.3448276,55.9042085 L95.1724138,55.9042085 L95.1724138,60.0394208 Z M82.7586207,37.2957529 C85.0439369,37.2957529 86.8965517,39.1471505 86.8965517,41.4309652 C86.8965517,43.7147799 85.0439369,45.5661776 82.7586207,45.5661776 C80.4733045,45.5661776 78.6206897,43.7147799 78.6206897,41.4309652 C78.6206897,39.1471505 80.4733045,37.2957529 82.7586207,37.2957529 Z M64.4689655,35.2281467 L80.6896552,9.36239338 L80.6896552,33.4500054 C76.6545378,34.4911837 74.023603,38.3683995 74.5487198,42.4999187 C75.0738365,46.6314379 78.5911694,49.7282344 82.7586207,49.7282344 C86.926072,49.7282344 90.4434049,46.6314379 90.9685216,42.4999187 C91.4936384,38.3683995 88.8627036,34.4911837 84.8275862,33.4500054 L84.8275862,9.36239338 L101.048276,35.2281467 L91.8827586,51.7689961 L73.6344828,51.7689961 L64.4689655,35.2281467 Z M74.4827586,64.1746332 L91.0344828,64.1746332 L91.0344828,74.5126641 L74.4827586,74.5126641 L74.4827586,64.1746332 Z M49.6551724,60.0394208 L24.8275862,60.0394208 L24.8275862,55.9042085 L49.6551724,55.9042085 L49.6551724,60.0394208 Z M28.9655172,21.8507347 C31.177176,20.03809 33.1513597,17.9540548 34.8413793,15.6479162 C36.5598074,12.95673 37.8053258,9.9918265 38.5241379,6.88126597 C43.1172414,12.7325915 51.7241379,24.7040312 51.7241379,33.1605405 C51.7241379,44.4910224 46.4275862,50.2389675 44.7517241,51.7689961 L27.1448276,51.7689961 C25.6965517,50.7558691 20.6896552,46.4759243 20.6896552,35.2281467 C20.6896552,29.2320888 24.7034483,25.6551301 28.9655172,21.8507347 Z M28.9655172,64.1746332 L45.5172414,64.1746332 L45.5172414,74.5126641 L28.9655172,74.5126641 L28.9655172,64.1746332 Z M68.2758621,115.864788 L51.7241379,115.864788 L51.7241379,101.391544 L68.2758621,101.391544 L68.2758621,115.864788 Z M115.862069,97.256332 L4.13793103,97.256332 L4.13793103,78.6478764 L115.862069,78.6478764 L115.862069,97.256332 Z" id="Shape" fill-rule="nonzero"></path>
                <circle id="Oval" cx="59.5041322" cy="87.2727273" r="3.96694215"></circle>
                <rect id="Rectangle" x="62.4793388" y="68.4297521" width="3.96694215" height="3.96694215"></rect>
                <rect id="Rectangle" x="53.553719" y="68.4297521" width="3.96694215" height="3.96694215"></rect>
            </g>
        </g>
    </g>
</svg>