<?xml version="1.0" encoding="UTF-8"?>
<svg width="1114px" height="200px" viewBox="0 0 1114 200" version="1.1" xmlns="http://www.w3.org/2000/svg" xmlns:xlink="http://www.w3.org/1999/xlink">
    <!-- Generator: Sketch 52.5 (67469) - http://www.bohemiancoding.com/sketch -->
    <title>Artboard</title>
    <desc>Created with Sketch.</desc>
    <g id="Artboard" stroke="none" stroke-width="1" fill="none" fill-rule="evenodd">
        <g id="angular" transform="translate(1.000000, 0.000000)">
            <g>
                <polygon id="Path" fill="#DD0031" points="93 0 93 0 93 0 0 33.2 14.1847476 156.3 93 200 93 200 93 200 171.815252 156.3 186 33.2"></polygon>
                <polygon id="Path" fill="#C3002F" points="93 0 93 22.2 93 22.1 93 123.4 93 123.4 93 200 93 200 172.662728 156.3 187 33.2"></polygon>
                <path d="M93.0998279,22 L35,153 L56.6626506,153 L68.3425129,123.688123 L117.657487,123.688123 L129.337349,153 L151,153 L93.0998279,22 Z M110.070568,105.619157 L76.1290878,105.619157 L93.0998279,64.5624521 L110.070568,105.619157 Z" id="Shape" fill="#FFFFFF" fill-rule="nonzero"></path>
            </g>
        </g>
        <text id="Hack-for-Good" font-family="Avenir-Black, Avenir" font-size="90" font-weight="700" fill="#FFFFFF">
            <tspan x="475.31" y="129">Hack for Good</tspan>
        </text>
        <g id="NS" transform="translate(238.000000, 7.000000)">
            <path d="M46.75,0 L140.25,0 C166.108594,0 187,20.8914062 187,46.75 L187,140.25 C187,166.108594 166.108594,187 140.25,187 L46.75,187 C20.8914062,187 0,166.108594 0,140.25 L0,46.75 C0,20.8914062 20.8914062,0 46.75,0 Z" id="Path" fill="#3D5AFE"></path>
            <path d="M170.491406,93.0617187 C161.871875,93.0617187 154.859375,86.0492187 154.859375,77.4296875 L154.859375,46.3117187 C154.859375,37.6921875 147.846875,30.6796875 139.227344,30.6796875 L123.741406,30.6796875 L123.741406,108.547656 L61.5054688,30.6796875 L45.8734375,30.6796875 C37.2539063,30.6796875 30.2414063,37.6921875 30.2414063,46.3117187 L30.2414063,77.4296875 C30.2414063,86.0492187 23.2289063,93.0617187 14.609375,93.0617187 C23.2289063,93.0617187 30.2414063,100.074219 30.2414063,108.69375 L30.2414063,139.811719 C30.2414063,148.43125 37.2539063,155.44375 45.8734375,155.44375 L61.5054688,155.44375 L61.5054688,77.5757812 L123.8875,155.44375 L139.373438,155.44375 C147.992969,155.44375 155.005469,148.43125 155.005469,139.811719 L155.005469,108.69375 C155.005469,100.074219 161.871875,93.0617187 170.491406,93.0617187 Z" id="Path" fill="#FFFFFF"></path>
        </g>
    </g>
</svg>