<?xml version="1.0" encoding="UTF-8"?>
<svg width="91px" height="120px" viewBox="0 0 91 120" version="1.1" xmlns="http://www.w3.org/2000/svg" xmlns:xlink="http://www.w3.org/1999/xlink">
    <!-- Generator: Sketch 52.5 (67469) - http://www.bohemiancoding.com/sketch -->
    <title>noun_innovation_880473</title>
    <desc>Created with Sketch.</desc>
    <g id="Page-3" stroke="none" stroke-width="1" fill="none" fill-rule="evenodd">
        <g id="o" transform="translate(-453.000000, -540.000000)" fill="#73FBD3">
            <g id="noun_innovation_880473" transform="translate(453.000000, 540.000000)">
                <path d="M89.1153064,60.6192106 C86.4607695,56.0128876 80.1392956,54.1612968 71.1361668,55.1520338 C76.4422276,49.1109545 79.4342313,41.2907773 79.4342313,33.201772 C79.4342313,14.8912606 64.5736453,0 46.3112747,0 C28.0489041,0 13.1943443,14.8942811 13.1943443,33.201772 C13.1943443,42.4929521 17.1294468,51.430729 23.9902647,57.7194925 L24.0595659,57.7829239 C24.2584302,57.946033 24.4572945,58.1212243 24.6591719,58.2994362 L24.8911802,58.4987918 C28.4195148,61.7217076 30.8058863,65.9836891 31.7610375,70.5960532 C25.6022707,74.5046315 20.2389611,78.6306887 15.8338158,82.7507048 C9.7985859,76.4951671 6.46007631,70.6896899 6.05632154,66.4428111 C6.61977036,66.5726943 7.19527156,66.6542489 7.79487753,66.6542489 C12.0945645,66.6542489 15.5927682,63.1474023 15.5927682,58.8340717 C15.5927682,54.5237616 12.0945645,51.016915 7.79487753,51.016915 C3.49519054,51.016915 0,54.5267821 0,58.8370922 C0,61.030004 0.909954779,63.005437 2.36226671,64.4281112 C1.76266075,70.2275473 5.80924773,77.7335884 13.1792788,85.3695127 C3.94715484,94.875151 0.0120523812,104.087797 3.51326911,110.165123 C5.6977632,113.958921 10.4313359,115.922271 17.138486,115.922271 C18.8890944,115.922271 20.8084361,115.74406 22.8181707,115.478252 C24.062579,118.142368 26.7442338,120 29.8658006,120 C34.1654875,120 37.6636912,116.499195 37.6636912,112.182843 C37.6636912,107.875554 34.1654875,104.365687 29.8658006,104.365687 C25.6956767,104.365687 22.3059445,107.679219 22.1070802,111.811317 C14.2218098,112.841321 8.6475835,111.608941 6.74029417,108.295409 C4.4202108,104.27205 7.56588229,96.5847765 15.8518943,88.0064438 C21.3477802,93.1745872 28.265847,98.3125252 36.2204185,102.915828 C47.4140676,109.397906 58.9391571,113.810914 68.6714549,115.345348 C71.1211013,115.731977 73.3959883,115.922271 75.4931026,115.922271 C82.1972396,115.922271 86.9398516,113.95288 89.1153064,110.165123 C92.610497,104.087797 88.6784076,94.8721305 79.4462836,85.3634716 C89.0008088,75.5074507 92.5321565,66.54853 89.1153064,60.6192106 Z M7.79789062,54.7593637 C10.0426466,54.7593637 11.8685824,56.5898107 11.8685824,58.8401128 C11.8685824,61.0904148 10.0426466,62.9238824 7.79789062,62.9238824 C5.55313463,62.9238824 3.72719888,61.0904148 3.72719888,58.8401128 C3.72719888,56.5898107 5.55313463,54.7593637 7.79789062,54.7593637 Z M29.8658006,108.099074 C32.1105566,108.099074 33.9395054,109.9265 33.9395054,112.182843 C33.9395054,114.439186 32.1135697,116.266613 29.8658006,116.266613 C27.6210446,116.266613 25.7951088,114.439186 25.7951088,112.182843 C25.7951088,109.9265 27.6210446,108.099074 29.8658006,108.099074 Z M85.8882814,62.4859041 C88.3379279,66.7297624 84.8156195,74.4049537 76.7646288,82.7235199 C72.3624966,78.6095449 67.0142525,74.4895288 60.864525,70.5869915 C61.7112047,66.4820781 63.7179262,62.6822392 66.6255632,59.6314942 C76.484411,57.6016915 83.6766694,58.6437777 85.8882814,62.4859041 Z M35.9703316,86.4720097 L35.9703316,83.6175997 L56.6672832,83.6175997 L56.6672832,86.4720097 L35.9703316,86.4720097 Z M35.9703316,79.875151 L35.9703316,77.0177205 L56.6672832,77.0177205 L56.6672832,79.875151 L35.9703316,79.875151 Z M27.1178577,55.4903343 C26.9009148,55.3000403 26.686985,55.1127668 26.4730553,54.934555 C20.4016682,49.3495771 16.9215432,41.4327427 16.9215432,33.2047926 C16.9215432,16.9573097 30.1068482,3.73942811 46.3112747,3.73942811 C62.5157012,3.73942811 75.7040193,16.9573097 75.7040193,33.2047926 C75.7040193,41.4327427 72.217868,49.3495771 66.1404548,54.9375755 C65.9024203,55.1369311 65.6643858,55.3513894 65.4263512,55.5658478 L65.2365262,55.7380185 C60.2498535,60.2778896 57.2036142,66.5908176 56.7275451,73.2813129 L35.8980173,73.2813129 C35.4189352,66.6028997 32.3817351,60.2929923 27.3709577,55.7168747 L27.1178577,55.4903343 Z M18.5154706,85.3846154 C21.7033254,82.4033427 25.4907862,79.343536 29.8688137,76.3229964 L29.8688137,77.0147 L32.2401197,77.0147 L32.2401197,79.8721305 L29.8658006,79.8721305 L29.8658006,83.6055175 L32.2401197,83.6055175 L32.2401197,86.4659686 L29.8658006,86.4659686 L29.8658006,90.2053967 L62.762775,90.2053967 L62.762775,86.4720097 L60.391469,86.4720097 L60.391469,83.6115586 L62.762775,83.6115586 L62.762775,79.8781716 L60.391469,79.8781716 L60.391469,77.020741 L62.762775,77.020741 L62.762775,76.3290375 C67.1227239,79.337495 70.8951192,82.382199 74.0739347,85.35441 C68.6352977,90.453081 61.9612916,95.3826017 54.5490772,99.6778091 C51.8011343,101.263592 49.0290866,102.710431 46.290183,104.021345 C43.5603187,102.70741 40.818402,101.260572 38.0885376,99.6778091 C30.1460184,95.0775272 23.5985623,90.1570681 18.5154706,85.3846154 Z M85.8882814,108.292388 C83.8815599,111.77205 77.8161991,112.998389 69.2529823,111.642167 C63.5732976,110.748087 57.2277189,108.80588 50.6802629,106.002819 C52.5935784,105.027185 54.5068939,104.009263 56.4051439,102.912807 C64.1277072,98.4424084 71.0759049,93.2893677 76.7435372,87.9671768 C85.0566671,96.5606122 88.2083648,104.256947 85.8882814,108.292388 Z" id="Shape" fill-rule="nonzero"></path>
                <rect id="Rectangle" x="38.961039" y="93.5064935" width="14.025974" height="3.11688312"></rect>
                <polygon id="Path" points="44.9829026 50.2923723 48.5176049 51.4285714 54.5454545 31.6020514 43.9982142 31.6020514 48.5176049 16.7206147 44.9829026 15.5844156 38.961039 35.4109356 49.5022934 35.4109356"></polygon>
            </g>
        </g>
    </g>
</svg>