<?xml version="1.0" encoding="UTF-8"?>
<svg width="176px" height="120px" viewBox="0 0 176 120" version="1.1" xmlns="http://www.w3.org/2000/svg" xmlns:xlink="http://www.w3.org/1999/xlink">
    <!-- Generator: Sketch 52.5 (67469) - http://www.bohemiancoding.com/sketch -->
    <title>noun_Heart laptop_330506</title>
    <desc>Created with Sketch.</desc>
    <g id="Page-3" stroke="none" stroke-width="1" fill="none" fill-rule="evenodd">
        <g id="o" transform="translate(-231.000000, -540.000000)" fill="#73FBD3" fill-rule="nonzero">
            <g id="noun_Heart-laptop_330506" transform="translate(231.000000, 540.000000)">
                <path d="M87.804878,80.8203991 C87.0066519,80.8203991 86.4079823,80.6208426 85.8093126,80.0221729 C74.6341463,70.2439024 60.864745,57.8713969 60.864745,43.7028825 C60.864745,31.3303769 68.4478936,26.940133 75.631929,26.940133 C80.6208426,26.940133 85.210643,30.7317073 87.804878,33.5254989 C90.3991131,30.7317073 94.9889135,26.940133 99.9778271,26.940133 C107.161863,26.940133 114.745011,31.3303769 114.745011,43.7028825 C114.745011,58.0709534 100.97561,70.2439024 89.8004435,80.0221729 C89.2017738,80.6208426 88.6031042,80.8203991 87.804878,80.8203991 Z M75.0642804,31.940133 C69.2100306,31.940133 65.864745,35.9170732 65.864745,43.2430155 C65.864745,54.545898 77.5732446,65.6394678 87.8181818,74.8492239 C98.063119,65.6394678 109.771619,54.545898 109.771619,43.2430155 C109.771619,33.4053215 103.917369,31.940133 100.572083,31.940133 C96.5995565,31.940133 91.7907085,37.3822616 90.327146,39.2660754 C89.0726639,40.9405765 86.3546194,40.9405765 85.3092176,39.2660754 C83.8456552,37.3822616 79.0368071,31.940133 75.0642804,31.940133 Z" id="Shape"></path>
                <g id="Group">
                    <path d="M146,10 L30,10 C28.4,10 27,11.4 27,13 L27,93 C27,94.6 28.4,96 30,96 L146,96 C147.6,96 149,94.6 149,93 L149,13 C149,11.4 147.6,10 146,10 Z M144,91 L31,91 L31,14 L144,14 L144,91 Z" id="Shape"></path>
                    <path d="M170,102 L158.847007,102 C158.847007,101.600887 158.847007,99.1796009 158.847007,98.7804878 L158.847007,6.98447894 C158.847007,3.19290466 155.654102,0 151.862528,0 L23.9467849,0 C20.1552106,0 16.962306,3.19290466 16.962306,6.98447894 L16.962306,98.7804878 C16.962306,99.1796009 16.7627494,101.600887 16.962306,102 L6,102 C4.00443459,102 0,101.114595 0,108.099074 C0,111.291978 1.79600887,113.747228 4.3902439,116.341463 C6.58536585,118.536585 9.37915743,119.733925 12.172949,119.733925 C12.3725055,119.733925 12.3725055,119.733925 12.5720621,119.733925 L162.838137,119.733925 C166.230599,119.733925 169.62306,118.137472 172.217295,114.944568 C174.21286,112.350333 176,110.693309 176,108.099074 C176,105.504839 175.986696,102 170,102 Z M20.9490022,101.227296 L20.9490022,4.53767043 C20.9490022,3.90708591 21.360423,3.48669623 21.9775542,3.48669623 L153.632202,3.48669623 C154.249333,3.48669623 154.660754,3.90708591 154.660754,4.53767043 L154.660754,101.227296 C154.660754,101.857881 154.249333,102.278271 153.632202,102.278271 L21.9775542,102.278271 C21.360423,102.278271 20.9490022,101.857881 20.9490022,101.227296 Z M167.627494,111.152993 C166.829268,112.150776 165.232816,113.747228 163.037694,113.747228 L12.5720621,113.747228 C11.1751663,113.747228 9.77827051,113.348115 8.58093126,112.150776 C6.78492239,110.554324 5.98669623,108.159645 5.98669623,106.762749 C5.98669623,106.363636 5.98669623,105.964523 5.98669623,105.764967 C6.18625277,105.764967 6.58536585,105.764967 6.78492239,105.764967 L23.9467849,105.764967 L75.0332594,105.764967 C74.8337029,106.16408 74.8337029,106.363636 74.8337029,106.762749 C74.8337029,108.359202 76.2305987,109.756098 77.827051,109.756098 L97.7827051,109.756098 C99.3791574,109.756098 100.776053,108.359202 100.776053,106.762749 C100.776053,106.363636 100.776053,106.16408 100.576497,105.764967 L151.662971,105.764967 L168.824834,105.764967 C169.223947,105.764967 169.423503,105.764967 169.62306,105.764967 C169.62306,105.964523 169.62306,106.16408 169.62306,106.762749 C169.62306,107.760532 169.02439,109.556541 167.627494,111.152993 Z" id="Shape"></path>
                </g>
            </g>
        </g>
    </g>
</svg>