<?xml version="1.0" encoding="UTF-8"?>
<svg width="120px" height="82px" viewBox="0 0 120 82" version="1.1" xmlns="http://www.w3.org/2000/svg" xmlns:xlink="http://www.w3.org/1999/xlink">
    <!-- Generator: Sketch 52.5 (67469) - http://www.bohemiancoding.com/sketch -->
    <title>noun_Heart laptop_330506</title>
    <desc>Created with Sketch.</desc>
    <g id="Page-3" stroke="none" stroke-width="1" fill="none" fill-rule="evenodd">
        <g id="o" transform="translate(-259.000000, -578.000000)" fill="#73FBD3" fill-rule="nonzero">
            <g id="noun_Heart-laptop_330506" transform="translate(259.000000, 578.000000)">
                <path d="M60,55.2272727 C59.4545455,55.2272727 59.0454545,55.0909091 58.6363636,54.6818182 C51,48 41.5909091,39.5454545 41.5909091,29.8636364 C41.5909091,21.4090909 46.7727273,18.4090909 51.6818182,18.4090909 C55.0909091,18.4090909 58.2272727,21 60,22.9090909 C61.7727273,21 64.9090909,18.4090909 68.3181818,18.4090909 C73.2272727,18.4090909 78.4090909,21.4090909 78.4090909,29.8636364 C78.4090909,39.6818182 69,48 61.3636364,54.6818182 C60.9545455,55.0909091 60.5454545,55.2272727 60,55.2272727 Z M51.6818182,22.5 C47.8636364,22.5 45.6818182,25.0909091 45.6818182,29.8636364 C45.6818182,37.2272727 53.3181818,44.4545455 60,50.4545455 C66.6818182,44.4545455 74.3181818,37.2272727 74.3181818,29.8636364 C74.3181818,23.4545455 70.5,22.5 68.3181818,22.5 C65.7272727,22.5 62.5909091,26.0454545 61.6363636,27.2727273 C60.8181818,28.3636364 59.0454545,28.3636364 58.3636364,27.2727273 C57.4090909,26.0454545 54.2727273,22.5 51.6818182,22.5 Z" id="Shape"></path>
                <g id="Group">
                    <path d="M99.5454545,6.81818182 L20.4545455,6.81818182 C19.3636364,6.81818182 18.4090909,7.77272727 18.4090909,8.86363636 L18.4090909,63.4090909 C18.4090909,64.5 19.3636364,65.4545455 20.4545455,65.4545455 L99.5454545,65.4545455 C100.636364,65.4545455 101.590909,64.5 101.590909,63.4090909 L101.590909,8.86363636 C101.590909,7.77272727 100.636364,6.81818182 99.5454545,6.81818182 Z M97.5,61.3636364 L22.5,61.3636364 L22.5,10.9090909 L97.5,10.9090909 L97.5,61.3636364 Z" id="Shape"></path>
                    <path d="M115.363636,68.1818182 L108.409091,68.1818182 C108.409091,67.9090909 108.545455,67.7727273 108.545455,67.5 L108.545455,4.77272727 C108.545455,2.18181818 106.363636,0 103.772727,0 L16.3636364,0 C13.7727273,0 11.5909091,2.18181818 11.5909091,4.77272727 L11.5909091,67.5 C11.5909091,67.7727273 11.5909091,67.9090909 11.7272727,68.1818182 L4.63636364,68.1818182 C3.27272727,68.1818182 0,68.1818182 0,72.9545455 C0,75.1363636 1.22727273,77.7272727 3,79.5 C4.5,81 6.40909091,81.8181818 8.31818182,81.8181818 C8.45454545,81.8181818 8.45454545,81.8181818 8.59090909,81.8181818 L111.272727,81.8181818 C111.272727,81.8181818 111.272727,81.8181818 111.272727,81.8181818 C113.590909,81.8181818 115.909091,80.7272727 117.681818,78.5454545 C119.045455,76.7727273 120,74.7272727 120,72.9545455 C120,71.1818182 119.454545,68.1818182 115.363636,68.1818182 Z M15.6818182,67.5 L15.6818182,4.77272727 C15.6818182,4.36363636 15.9545455,4.09090909 16.3636364,4.09090909 L103.636364,4.09090909 C104.045455,4.09090909 104.318182,4.36363636 104.318182,4.77272727 L104.318182,67.5 C104.318182,67.9090909 104.045455,68.1818182 103.636364,68.1818182 L16.3636364,68.1818182 C15.9545455,68.1818182 15.6818182,67.9090909 15.6818182,67.5 Z M114.545455,75.9545455 C114,76.6363636 112.909091,77.7272727 111.409091,77.7272727 C111.409091,77.7272727 111.409091,77.7272727 111.409091,77.7272727 L8.59090909,77.7272727 C7.63636364,77.7272727 6.68181818,77.4545455 5.86363636,76.6363636 C4.63636364,75.5454545 4.09090909,73.9090909 4.09090909,72.9545455 C4.09090909,72.6818182 4.09090909,72.4090909 4.09090909,72.2727273 C4.22727273,72.2727273 4.5,72.2727273 4.63636364,72.2727273 L16.3636364,72.2727273 L51.2727273,72.2727273 C51.1363636,72.5454545 51.1363636,72.6818182 51.1363636,72.9545455 C51.1363636,74.0454545 52.0909091,75 53.1818182,75 L66.8181818,75 C67.9090909,75 68.8636364,74.0454545 68.8636364,72.9545455 C68.8636364,72.6818182 68.8636364,72.5454545 68.7272727,72.2727273 L103.636364,72.2727273 L115.363636,72.2727273 C115.636364,72.2727273 115.772727,72.2727273 115.909091,72.2727273 C115.909091,72.4090909 115.909091,72.5454545 115.909091,72.9545455 C115.909091,73.6363636 115.5,74.8636364 114.545455,75.9545455 Z" id="Shape"></path>
                </g>
            </g>
        </g>
    </g>
</svg>